# xmcd CD database file
# Copyright (C) 1993-1996 Ti Kan
#
# Track frame offsets:
# 150
# 15165
# 29677
# 45397
#
# Disc length: 804 seconds
# Revision: 0
# Processed by: cddbd v1.4b41PL1 Copyright (c) Steve Scherf et al.
# Submitted via: CDSpectrumPro v3.2.328
#
DISCID=22032204
DTITLE=INXS - Heaven Sent
DYEAR=1900
DGENRE=
TTITLE0=Heaven Sent
TTITLE1=It Ain't Easy
TTITLE2=11th Revolution
TTITLE3=Deepest Red
EXTD=
EXTT0=
EXTT1=
EXTT2=
EXTT3=
PLAYORDER=
